<?xml version="1.0" encoding="UTF-8"?>
<!-- Created with Inkscape (http://www.inkscape.org/) -->
<svg width="35.245mm" height="35.245mm" version="1.1" viewBox="0 0 35.245 35.245" xmlns="http://www.w3.org/2000/svg">
 <defs>
  <clipPath id="clipPath20412">
   <path d="m99.952 69.093v27.042c0.09921 0.11403 0.19618 0.22956 0.28629 0.35089 0.29194 0.39298 0.53257 0.82172 0.79892 1.2325 0.15488 0.26245 0.2999 0.52928 0.43718 0.79943h4.0649c0.0552-1.6586 0.0515-3.3151-0.1509-4.9666l1.8645-0.15503c0.20606 1.7029 0.21206 3.4114 0.15761 5.1217h3.7424c0.0971-0.91088 0.16518-1.8248 0.12867-2.742l0.93534-0.01913c0.0361 0.92338-0.0282 1.8438-0.1235 2.7611h5.0932c-9e-3 -0.89629-0.0564-1.7909-0.1571-2.6841l0.93224-0.07752c0.10318 0.9189 0.15113 1.8394 0.1602 2.7616h4.5372c-0.0425-0.91255-0.0789-1.8256-0.11317-2.7383l0.93534-0.01913c0.0347 0.91902 0.0712 1.8385 0.11421 2.7575h5.2234c-0.0208-0.86007-0.0516-1.7199-0.14108-2.5761l0.93225-0.07751c0.0917 0.88202 0.12334 1.7676 0.14469 2.6536h5.2384c-0.0615-0.7407-0.12303-1.4814-0.18448-2.2221l0.93224-0.07751c0.0636 0.76653 0.12707 1.5331 0.19069 2.2996h4.0147c1e-4 -9e-3 2.1e-4 -0.01789 5.3e-4 -0.02687 2.1e-4 -0.01805 5.3e-4 -0.03622 1e-3 -0.05426 2.5e-4 -0.0149 7.9e-4 -0.02954 1e-3 -0.04444 1e-3 -0.02336 2e-3 -0.04692 2e-3 -0.07028l5.3e-4 -0.04237c1.6e-4 -0.01916 5.3e-4 -0.03821 1e-3 -0.05736 3e-5 -0.02212 5.3e-4 -0.04402 1e-3 -0.06615 5e-5 -0.02209 5.3e-4 -0.04454 1e-3 -0.06667 0-0.03165 5.3e-4 -0.06344 2e-3 -0.09508 1e-3 -0.02307 2e-3 -0.04565 2e-3 -0.06873-8e-4 -0.0099-3e-3 -0.02148-4e-3 -0.02997-2e-3 -0.01289-2e-3 -0.02582-3e-3 -0.03876-9e-5 -0.0019-5e-5 -0.0034 0-0.0052 0-0.0182-3e-3 -0.03616-5e-3 -0.05426-1e-3 -0.02674-2e-3 -0.05339-5.3e-4 -0.0801 2.6e-4 -0.0038-2e-3 -0.02875-3e-3 -0.03307-1.8e-4 5.29e-4 -7.9e-4 0.0019-1e-3 0.0041-2e-3 -0.03166-4e-3 -0.06336-2e-3 -0.09509 1e-3 -0.03013 1e-3 -0.0598 2e-3 -0.08992 1.1e-4 -0.02053 5.2e-4 -0.04148 1e-3 -0.06201 1e-3 -0.02442 2e-3 -0.04844 2e-3 -0.07286 1e-3 -0.02363 2e-3 -0.04769 2e-3 -0.07131 1e-3 -0.02418 1e-3 -0.04816 2e-3 -0.07235 1e-3 -0.02421 2e-3 -0.04863 2e-3 -0.07286 1.1e-4 -0.02027 5.3e-4 -0.04019 1e-3 -0.06046 5e-5 -0.02162 5.3e-4 -0.04349 1e-3 -0.06511 1e-3 -0.02622 2e-3 -0.05234 2e-3 -0.07855 1e-3 -0.02962 5.3e-4 -0.05926 2e-3 -0.08888 0-0.02994 1e-3 -0.05997 2e-3 -0.08992 0-0.01847 2.4e-4 -0.03652-4e-3 -0.05478-2e-3 -0.0286-3e-3 -0.05733-7e-3 -0.08578-2e-3 -0.02663-1e-3 -0.05269-6e-3 -0.07906-2e-3 -0.0263-2e-3 -0.05307-6e-3 -0.07907-5e-3 -0.03185-8e-3 -0.06361-0.0114-0.0956-3e-3 -0.03946-8e-3 -0.07876-0.0103-0.11834l0.41289-0.03669c2e-3 0.03931 6e-3 0.07816 0.01 0.11731 3e-3 0.02492 5e-3 0.05023 9e-3 0.07493 1e-3 0.0031 2e-3 0.0066 2e-3 0.0098 3e-3 0.02482 5e-3 0.04941 6e-3 0.07441 2.2e-4 0.0087 3e-5 0.01484 0 0.01757 8e-5 -7.93e-4 2.6e-4 -0.0011 5.3e-4 -0.0031 4e-3 0.0209 5e-3 0.04237 6e-3 0.06356 8e-4 0.02024-2e-3 0.01257 1e-3 0.02016 2.7e-4 0.0028 7.9e-4 0.0055 1e-3 0.0083 2e-3 0.01863 3e-3 0.03706 4e-3 0.05581 2.6e-4 0.0084 5.3e-4 0.01479 5.3e-4 0.01757 7e-5 -7.94e-4 2.5e-4 -0.0011 5.3e-4 -0.0026 6e-3 0.0333 6e-3 0.06708 6e-3 0.10077-1e-3 0.03175-2e-3 0.06333-3e-3 0.09508-1e-3 0.02912-1e-3 0.05821-2e-3 0.08733-1e-3 0.0263-2e-3 0.05278-2e-3 0.07907-5e-5 0.02162-5.2e-4 0.04299-1e-3 0.06459-1.1e-4 0.02027-5.3e-4 0.04071-1e-3 0.06098-1e-3 0.02424-2e-3 0.04863-2e-3 0.07286-1e-3 0.02418-2e-3 0.04816-2e-3 0.07235-1e-3 0.02363-2e-3 0.04717-2e-3 0.0708-1e-3 0.02442-1e-3 0.04896-2e-3 0.07338-2e-5 4e-3 4e-5 0.0079 0 0.01188 2.2e-4 0.0019 2.6e-4 0.0038 5.3e-4 0.0057 1e-3 0.01005 2e-3 0.02037 2e-3 0.03049 3e-5 0.0072 1e-3 0.01439 1e-3 0.0217 1e-3 0.0071 2e-3 0.0145 2e-3 0.0217 5.3e-4 0.0076 2e-3 0.01503 1e-3 0.02273 0 0.0064 3e-3 0.01273 2e-3 0.01913 1e-3 0.0056 2e-3 0.01119 2e-3 0.01707-7e-5 0.0028-2.6e-4 0.0054-5.3e-4 0.0083v5.3e-4c9e-5 3e-3 5.3e-4 0.0058 1e-3 0.0088 1.8e-4 0.0031 2.7e-4 0.0062 5.3e-4 0.0093v5.29e-4c3e-5 2.65e-4 -1.2e-4 0.0013 0 0.0011 1e-3 0.0071 2e-3 0.01402 2e-3 0.02119-1.2e-4 0.0053-2.7e-4 0.01072-5.3e-4 0.01601-3e-5 7.94e-4 5e-5 0.0016 0 0.0026v5.29e-4c7e-5 5.29e-4 -2.6e-4 1.64e-4 0 0.0021 1e-3 0.0096 2e-3 0.01924 1e-3 0.02894 0 0.0041 2.6e-4 0.0078 1e-3 0.01188 2.6e-4 0.0054 7.9e-4 0.01061 5.3e-4 0.01603 0 0.0027 2.6e-4 0.0064 5.3e-4 0.0088 2.6e-4 0.0033 7.9e-4 0.0065 1e-3 0.0098 4e-5 7.94e-4 1e-5 0.0019 0 0.0026-1e-4 0.0044-5.3e-4 9e-3 -5.3e-4 0.01344v0.0062c-5e-5 0.0021 4e-5 0.0042 0 0.0062-5e-5 0.0027-5.2e-4 0.0051-5.2e-4 0.0078 0 0.0069 5.2e-4 0.01397-2e-3 0.02066-2.6e-4 0.0011-5.3e-4 0.0011-5.3e-4 0.0016-1e-5 2.64e-4 0 7.94e-4 0 0.0011-8e-5 0.0074 9e-5 0.01439-5.3e-4 0.0217-7.9e-4 0.0044-2e-3 0.0086-3e-3 0.01291 0 2.64e-4 1e-5 7.93e-4 0 0.0011-1.1e-4 0.0052-2.6e-4 0.01077-5.3e-4 0.01601 2e-3 0.01408 4e-3 0.02795 5e-3 0.04237 2e-3 0.03507-8e-5 0.07036-1e-3 0.10542-1e-3 0.03072-1e-3 0.06127-2e-3 0.09198-3e-5 0.02217-5.3e-4 0.0445-1e-3 0.06667-1e-5 0.02214-5.3e-4 0.04451-1e-3 0.06666-1.6e-4 0.01913-5.3e-4 0.03822-1e-3 0.05736l-1e-3 0.04237c-1e-3 0.02336-2e-3 0.04641-2e-3 0.06977-2.6e-4 0.0149-8e-4 0.03006-1e-3 0.04496-2e-4 0.01805-5e-5 0.0357-5.3e-4 0.05374-6e-5 0.0031-5.3e-4 0.0062-5.3e-4 0.0093-7e-5 0.0029 4e-5 0.0058 0 0.0088h30.037v-29.425z" fill="#b3a1a4" stop-color="#000000" style="-inkscape-stroke:none;font-variation-settings:normal"/>
  </clipPath>
  <clipPath id="clipPath32670">
   <path d="m88.696 96.403v13.325c0.24486 0.0989 0.49162 0.1928 0.73742 0.28938 0.92777 0.35196 0.71403 0.28388 1.7544 0.61547 0.30378 0.0968 0.60757 0.19414 0.91416 0.28164 1.0383 0.29642 2.0906 0.53661 3.143 0.77618 0.81932 0.18558 1.6428 0.35213 2.4665 0.51676l-0.09147 0.45889c-0.82778-0.16546-1.655-0.33284-2.4784-0.51935-1.0638-0.24224-2.1275-0.4857-3.1771-0.78548-0.30945-0.0884-0.61635-0.18642-0.92294-0.28422-1.0544-0.33642-0.84344-0.26921-1.7792-0.62425-0.18876-0.0742-0.37767-0.14824-0.56637-0.22273v5.7288c0.14801 0.029 0.29594 0.0587 0.4439 0.0879 1.5282 0.3244 3.0781 0.52046 4.6292 0.69505 0.54463 0.0585 1.0894 0.11688 1.634 0.17518l-0.05013 0.46509c-0.54549-0.0584-1.0906-0.11658-1.6361-0.17518-1.5638-0.17607-3.1266-0.37438-4.6674-0.70125-0.11785-0.0232-0.23558-0.0472-0.35346-0.0703v4.6286c1.3597-0.0335 2.7195-0.0527 4.0793-0.0791 0.96546-0.0147 1.9306-0.0541 2.8954-0.0909l0.01757 0.46767c-0.96772 0.0369-1.9353 0.0763-2.9037 0.0909-1.3629 0.0264-2.7259 0.045-4.0886 0.0786v3.515c0.13559 0.0218 0.27194 0.0399 0.40876 0.0532 0.12865 0.0125 0.25762 0.0194 0.38654 0.0284 0.8714 0.0484 1.7448 0.0224 2.6169 0.01 0.53896-0.0199 1.0781 5e-3 1.6123 0.077l-0.06253 0.46354c-0.51102-0.0696-1.027-0.0919-1.5425-0.0729-0.88592 0.0134-1.7736 0.0387-2.6588-0.0114-0.13734-0.0102-0.27481-0.017-0.41186-0.0305-0.11664-0.0115-0.23305-0.0265-0.34882-0.0439v1.7301c1.2919 0.13833 2.59 0.20973 3.8871 0.28112 0.8207 0.0379 1.6406 0.0918 2.4603 0.14573l-0.03049 0.46716c-0.8181-0.0538-1.6366-0.10793-2.4557-0.14573-1.2885-0.0709-2.5779-0.14227-3.8613-0.27802v1.6562h11.263v-18.162l-1.6407-5.3774c-1.4515-0.51454-2.8988-1.046-4.3207-1.6371-0.2486-0.10333-0.49369-0.21498-0.74052-0.32246-0.26333-0.1208-0.52932-0.2361-0.79013-0.36225-0.19239-0.0931-0.38063-0.19501-0.56947-0.29507-0.48594-0.25749-0.96442-0.52921-1.4175-0.84181l0.26355-0.38654c0.4399 0.30354 0.90465 0.56732 1.3767 0.81701 0.18649 0.0987 0.37176 0.19913 0.56172 0.29093 0.25406 0.12281 0.51342 0.23495 0.76998 0.35244 0.2441 0.10626 0.4864 0.21669 0.73226 0.31884 1.3056 0.54249 2.6326 1.0344 3.9646 1.5095l-0.43822-1.4361c0.66187-0.19297 1.3357-0.34742 2.0097-0.49248 0.07892-0.0178 0.15914-0.0272 0.23875-0.0408v-3.6318c-0.15419-0.32313-0.31918-0.64176-0.49971-0.95343-0.211-0.33679-0.39684-0.69027-0.63252-1.0103-0.21893-0.29726-0.47942-0.56184-0.72709-0.83561-0.14604-0.16144-0.29569-0.32047-0.44855-0.47646z" fill="#b3a1a4" stop-color="#000000" style="-inkscape-stroke:none;font-variation-settings:normal"/>
  </clipPath>
  <clipPath id="clipPath32727">
   <path d="m140.36 98.518c6e-5 -3e-3 -5e-5 -0.0059 0-0.0088 0-0.0031 5.3e-4 -0.0062 5.3e-4 -0.0093 5.3e-4 -0.01804 2.6e-4 -0.03569 5.3e-4 -0.05374 2e-4 -0.0149 8e-4 -0.03006 1e-3 -0.04496 0-0.02336 1e-3 -0.0464 2e-3 -0.06976l1e-3 -0.04237c5.3e-4 -0.01913 7.9e-4 -0.03823 1e-3 -0.05736 5.3e-4 -0.02215 1e-3 -0.04452 1e-3 -0.06666 5.3e-4 -0.02217 1e-3 -0.04449 1e-3 -0.06666 1e-3 -0.03071 5.3e-4 -0.06126 2e-3 -0.09198 7.9e-4 -0.03506 3e-3 -0.07035 5.3e-4 -0.10542-1e-3 -0.01442-3e-3 -0.02828-5e-3 -0.04238 2.7e-4 -0.0052 5.3e-4 -0.01082 5.3e-4 -0.01601 1e-5 -2.64e-4 0-7.94e-4 0-0.0011 1e-3 -0.0043 2e-3 -0.0085 3e-3 -0.01291 5.3e-4 -0.0073 5.3e-4 -0.01431 5.3e-4 -0.0217 0-2.64e-4 -1e-5 -7.93e-4 0-0.0011 0-5.29e-4 2.4e-4 -5.29e-4 5.2e-4 -0.0016 3e-3 -0.0067 2e-3 -0.01376 2e-3 -0.02066 0-0.0027 5.3e-4 -0.0051 5.3e-4 -0.0078 4e-5 -0.0021-5e-5 -0.0041 0-0.0062v-0.0062c0-0.0044 5.3e-4 -9e-3 5.3e-4 -0.01344 1e-5 -7.94e-4 4e-5 -0.0019 0-0.0026-2.1e-4 -0.0033-7.9e-4 -0.0065-1e-3 -0.0098-2.6e-4 -0.0024-5.3e-4 -0.0061-5.3e-4 -0.0088 2.6e-4 -0.0054-2.5e-4 -0.01061-5.3e-4 -0.01601-7.9e-4 -0.0041-1e-3 -0.0078-1e-3 -0.01188 1e-3 -0.0097-6e-5 -0.01934-1e-3 -0.02894-2.6e-4 -0.0019 7e-5 -0.0021 0-0.0026v-5.29e-4c5e-5 -0.0011-3e-5 -0.0019 0-0.0026 2.6e-4 -0.0053 2.5e-4 -0.01072 5.3e-4 -0.01601 0-0.0072-1e-3 -0.01408-2e-3 -0.02119-1.2e-4 1.99e-4 3e-5 -0.0013 0-0.0016v-5.29e-4c-2.6e-4 -0.0031-2.6e-4 -0.0062-5.3e-4 -0.0093-5.3e-4 -3e-3 -1e-3 -0.0058-1e-3 -0.0088v-5.3e-4c2.7e-4 -0.0029 5.3e-4 -0.0055 5.3e-4 -0.0083 0-0.0059-1e-3 -0.01146-2e-3 -0.01704 1e-3 -0.0064-2e-3 -0.01273-2e-3 -0.01913 1e-3 -0.0077-5.3e-4 -0.01513-1e-3 -0.02273 0-0.0072-1e-3 -0.01463-2e-3 -0.0217 0-0.0073-1e-3 -0.0145-1e-3 -0.0217 0-0.01013-8e-5 -0.02045-2e-3 -0.03049-2.7e-4 -0.0019-2.6e-4 -0.0038-5.3e-4 -0.0057 4e-5 -4e-3 -2e-5 -0.0079 0-0.01188 1e-3 -0.02442 8e-5 -0.04896 2e-3 -0.07338 2e-5 -0.02363 1e-3 -0.04717 2e-3 -0.0708 0-0.02418 1e-3 -0.04817 2e-3 -0.07235 0-0.02424 1e-3 -0.04861 2e-3 -0.07286 5.3e-4 -0.02027 8e-4 -0.04071 1e-3 -0.06098 5.3e-4 -0.02159 1e-3 -0.04297 1e-3 -0.0646 0-0.0263 1e-3 -0.05276 2e-3 -0.07906 1e-3 -0.02912 1e-3 -0.05821 2e-3 -0.08733 1e-3 -0.03175 2e-3 -0.06334 3e-3 -0.09509 0-0.03369 5.3e-4 -0.06747-6e-3 -0.10077-2.6e-4 0.0016-5.3e-4 0.0019-5.3e-4 0.0026 0-0.0028-2.4e-4 -0.0092-5.3e-4 -0.01757-1e-3 -0.01876-2e-3 -0.03718-4e-3 -0.05581-2.2e-4 -0.0028-8e-4 -0.0055-1e-3 -0.0083-3e-3 -0.0076-2.7e-4 9.3e-5 -1e-3 -0.02016-1e-3 -0.02119-2e-3 -0.04266-6e-3 -0.06356-2.6e-4 0.0021-5.3e-4 0.0024-5.3e-4 0.0031 3e-5 -0.0027 2.2e-4 -0.0089 0-0.01757-1e-3 -0.025-3e-3 -0.04959-6e-3 -0.07441 0-0.0032-1e-3 -0.0067-2e-3 -0.0098-4e-3 -0.02469-6e-3 -0.05001-9e-3 -0.07493-4e-3 -0.03915-8e-3 -0.078-0.0103-0.11731l-0.3638 0.03256c-2e-3 -0.0056-4e-3 -0.01148-6e-3 -0.01704-0.025-0.07769-0.0573-0.15237-0.11059-0.22427-7.9e-4 -0.0011-2e-3 -0.0026-3e-3 -0.0036-0.0339-0.07389-0.0732-0.14917-0.11989-0.2005-0.0135-0.01487-0.0266-0.03059-0.0398-0.04599 0.0897 0.06035-0.32495-0.33274-0.27957-0.27647 9e-3 0.01159 0.0194 0.02265 0.0289 0.03411v5.3e-4c6e-3 0.0078 0.0124 0.01516 0.0186 0.02273-0.0377-0.03407-0.0636-0.05566-0.0419-0.02946 7e-3 0.0089 0.015 0.01725 0.0227 0.02585-5.3e-4 -2.57e-4 -1e-3 -2.62e-4 -2e-3 -5.29e-4 1e-3 5.29e-4 2e-3 0.0013 3e-3 0.0021 0.0318 0.03537 0.066 0.06854 0.10077 0.10129-0.0554-0.04747-0.0943-0.08417-0.12351-0.11369 6e-3 0.0028 0.0111 0.0054 0.0165 0.0083-7e-3 -0.0041-0.0135-0.0074-0.0202-0.01138-0.14267-0.14526-0.0301-0.10112-0.24857-0.16536-5e-3 -0.0013-0.0116-0.0037-0.0165-0.0052-0.0163-0.0096-0.0326-0.01939-0.0491-0.02894 1e-3 -5.5e-5 2e-3 9.3e-5 3e-3 0 0.0101 0.0048 0.02 0.0098 0.03 0.01498-7.9e-4 -5.29e-4 -2e-3 -0.0019-3e-3 -0.0021-3e-3 -0.0019-0.0106-0.0065-0.016-0.01034-0.0657-0.04375-0.13249-0.08629-0.2036-0.12092-8e-3 -0.0061-0.0136-0.0097-0.0227-0.01654-9e-3 -0.0056-0.019-0.01095-0.0284-0.01654-0.025-0.01908-0.0599-0.04584-0.12247-0.09457-0.0248-0.0191-6e-3 -5.29e-4 -2e-3 5.29e-4 0.0271 0.0226 0.11133 0.0859 0.0811 0.0677-0.10761-0.06504-0.19997-0.15617-0.31419-0.20877-0.16528-0.07602-0.31195-0.1-0.47956-0.1142-0.054-0.0021-0.18595-0.0118-0.23875 0-5e-3 0.0011-0.01 0.0024-0.0145 0.0036-0.10756-0.0011-0.21494 0.0081-0.31987 0.0341-0.048 0.0186-0.0958 0.03757-0.14367 0.05633-0.11274-0.06477-0.22743-0.12544-0.34829-0.17363-0.2399-0.09979-0.4781-0.20707-0.73123-0.27027-0.11377-0.03-0.22826-0.058-0.34364-0.08113-0.0317-0.05219-0.0648-0.10395-0.0982-0.15503-0.14767-0.2263-0.33346-0.42912-0.55965-0.57929-0.0567-0.03761-0.11595-0.07064-0.17416-0.10594-0.10584-0.05717-0.21741-0.10314-0.33124-0.14263l8e-3 -1.0149c-0.19813 0.0095-0.39964-0.0099-0.59427 0.02842-0.78009 0.15354-1.0341 0.20774-1.3079 0.32918-0.0114 7.94e-4 -0.0228 0.0011-0.0341 0.0021l-0.32143-0.03152c-0.097-0.0096-0.19394-0.01841-0.29094-0.02842-0.20621-0.02029-0.41237-0.04058-0.61856-0.06098-0.26395-0.0264-0.52794-0.0548-0.79169-0.0832-0.63883-0.06612-1.2806-0.1371-1.9239-0.1049-0.12015 0.0086-0.0372 0.0024-0.11834 0.0083-0.01-5.29e-4 -0.0195-0.0011-0.0295-0.0016-0.0698-3e-3 -0.1399-0.0031-0.2098-0.0041-0.17039 0.0016-0.33831 0.0073-0.50643 0.01601-0.42426-0.03692-0.84961-0.05216-1.2738 0-0.0764-5.29e-4 -0.14929 0.0011-0.28371 0.0021-0.36373 0.01011-0.70204 0.03208-1.0707 0.0181 0.0414 4e-3 0.16562 0.01389 0.12402 0.01188-0.48812-0.0241-0.9765-0.06453-1.4655-0.02585-0.099 0.02061-3e-3 0.0021-0.25735 0.0031-0.27585 0.0011-0.55057 0.0176-0.82631 0.0047-0.56799 0.0032-1.1369 0.0099-1.7043 0.03256-0.40944 0.0491-0.82881-0.05773-1.2428-0.01344-0.39254 0.01471-0.66765 0.05318-0.97875 0.02429-0.48992-0.01971-0.97871-0.0075-1.4681-0.01654-0.21016-0.0076-0.43584 1.67e-4 -0.64647-0.01344-0.27847-0.0181-0.55572-0.06226-0.83509-0.06924-0.3211-0.01315-0.63987-0.02252-0.96118-0.01654-2e-3 -1.78e-4 -3e-3 -2.54e-4 -5e-3 -5.3e-4 -0.6061-0.0567-1.2153-0.09796-1.8242-0.06356-0.13149 0.02376 0.0154-0.0016-0.33641 5.29e-4 -0.32031 0.0016-0.51157 0.02146-0.80254 0.01447-0.13359 0.0011-0.26691 0.0011-0.40049 0.0041-8e-3 0 0.0158 0.0016 0.0238 0.0026 0.0474 0.0043 0.0951 0.0084 0.14263 0.01241-0.31735-0.01611-0.63466-0.04684-0.95291-0.03514-0.10502 0.0029-0.21026 0.0039-0.31523 0.0078-0.261-0.01884-0.522-0.03852-0.78393-0.03928-0.48333 0.0016-0.96602 0.01085-1.449 0.02946-0.18409 0.02119-0.39297 0.0032-0.57671 0.0072-2e-3 0 3e-3 0.0031 5e-3 0.0041 0.0467 0.0055 0.0934 0.01154 0.14004 0.01654-0.0698-0.0031-0.13927-0.01265-0.20877-0.01963-0.34934-0.03264-0.69908-0.06186-1.0475-0.10335-0.52505-0.07065-1.0392-0.21313-1.5699-0.24443-0.30909-0.03079-0.48629-0.03211-0.74259-0.11421-0.5142-0.11419-1.03-0.22244-1.5477-0.31884-0.41384-0.07033-0.82588-0.15847-1.2438-0.19947-0.14532-0.01389-0.0141 5.29e-4 -0.33124-0.07648-0.27563-0.06701-0.55397-0.11365-0.82373-0.19896l-0.4811 1.5772v-23.575h70.445v29.425zm-1.264-3.1941c-5e-3 -0.0026-0.011-0.0052-0.0165-0.0078-0.0291-0.01699-0.0583-0.034-0.0863-0.05271-0.0172-0.01151 0.0378 0.0177 0.0558 0.02791 0.0215 0.01228 0.0421 0.02572 0.063 0.03876-0.0109-0.0063-0.013-0.0065-0.016-0.0062zm-0.0165-0.0078c4e-3 0.0026 9e-3 0.0052 0.0134 0.0078-4e-3 1.51e-4 -0.0124-7.93e-4 -0.0258-0.0041 0.0159 8e-3 0.0313 0.01646 0.047 0.02479-0.0353-0.01064-0.0686-0.02048-0.11938-0.03669-5e-3 -0.0058-0.0117-0.01326-0.015-0.01707 0.0414 0.01506 0.0706 0.0245 0.0863 0.02842-0.0298-0.01511-0.0601-0.02986-0.0904-0.04393 0.0352 0.01172 0.07 0.0254 0.10387 0.04082zm-0.10387-0.04082c-5e-3 -0.0016-0.01-0.0031-0.0145-0.0047-1e-3 -0.0011-2e-3 -0.0021-3e-3 -0.0031 6e-3 0.0026 0.0118 0.0051 0.0176 0.0078zm-0.0176-0.0078c-3e-3 -0.0013-6e-3 -0.0028-9e-3 -0.0041-0.0137-0.01513-0.021-0.02318-0.0274-0.03049 0.0126 0.01095 0.0245 0.02244 0.0362 0.03462zm-9e-3 -0.0041c1e-3 0.0016 3e-3 0.0035 5e-3 0.0052-0.0304-0.0094-0.0614-0.01722-0.0925-0.02376-0.027-0.0108-0.0482-0.01902-0.0822-0.03307-0.0417-0.0172 0.0893 0.01611 0.13074 0.0341 0.0131 0.0057 0.0262 0.01167 0.0393 0.01757zm-0.0879-0.0186c0.0438 0.01751 0.0814 0.03202 0.10956 0.04237 5e-3 0.0049 0.0127 0.01294 0.0181 0.0186-0.0656-0.02096-0.14164-0.04558-0.23823-0.07855 0.0373 0.0037 0.074 0.0099 0.11059 0.01757zm0.12764 0.06098c2e-3 5.29e-4 4e-3 0.0016 6e-3 0.0021 0.0218 0.02453 0.0515 0.05758 0.0367 0.04237-0.0179-0.01833-0.0297-0.03105-0.0424-0.04444zm0.41806 0.21756c1e-3 0.0011 3e-3 0.0021 4e-3 0.0031-0.0303-0.01542-0.0611-0.02951-0.0925-0.04289-6e-3 -0.0053-0.0121-0.01061-0.0181-0.01601 4e-3 0.0045 8e-3 0.0086 0.0134 0.01394-0.0994-0.04206-0.20261-0.07735-0.29817-0.12712-0.0372-0.01929 0.081 0.02196 0.12144 0.03307 0.0504 0.02566 0.10515 0.04993 0.15968 0.07648l5.3e-4 5.29e-4c0.0374 0.0182 0.0742 0.03773 0.11007 0.05891zm-0.0935-0.04186c2e-3 5.29e-4 3e-3 0.0013 5e-3 0.0021 4e-3 0.0032 7e-3 0.0067 0.0108 0.0098 0.31801 0.36264 0.0859 0.09593-0.0155-0.01188zm0.11989 0.05736c-5.3e-4 -5.29e-4 -1e-3 -0.0011-2e-3 -0.0016 0.0105 0.0056 0.0208 0.01207 0.031 0.0181 3e-3 3e-3 5e-3 0.0058 8e-3 0.0088-0.0121-0.0087-0.0246-0.0173-0.0372-0.02532zm0.2496 0.22118c-0.01-0.0066-0.0241-0.01677-0.0476-0.03566-6e-3 -5e-3 -0.0105-0.0086-0.0165-0.01344 5e-3 0.0077 9e-3 0.01545 0.0139 0.02326-5.3e-4 -5.29e-4 -1e-3 -0.0011-2e-3 -0.0016h-5.3e-4s-5.2e-4 -5.29e-4 -5.2e-4 -5.29e-4c-6e-3 -0.0087-0.0114-0.01781-0.0176-0.02635 2e-3 0.0016 4e-3 3e-3 6e-3 0.0047-9e-3 -0.01495-0.0192-0.0301-0.0295-0.04444-0.0105-0.01458-0.028-0.03473-0.0481-0.05581 0.0521 0.04421 0.0971 0.09736 0.14211 0.14986zm-0.0527-0.02791c-8e-3 -0.0078-0.0158-0.01561-0.0238-0.02326-1e-3 -0.0016-2e-3 -0.0031-3e-3 -0.0047 9e-3 0.0093 0.018 0.01852 0.0269 0.02791zm-0.0238-0.02326c6e-3 0.0091 0.0114 0.01826 0.0171 0.02739-0.0229-0.02524-0.0454-0.05066-0.0682-0.07596 0.0171 0.01603 0.0343 0.03233 0.0512 0.04857zm-1.8991 1.3188c-0.0302-0.05203-0.0516-0.0952-0.0279-0.06615 9e-3 0.01135 0.0181 0.02289 0.0269 0.03462 1e-3 0.0021 2e-3 0.0045 4e-3 0.0067-7.9e-4 0.0083-2e-3 0.01654-3e-3 0.02479zm2.1983-0.87902c-3e-3 -0.0074-7e-3 -0.01574-0.0103-0.02376 1e-3 0.0016 2e-3 0.0031 3e-3 0.0047 3e-3 0.0067 6e-3 0.01479 7e-3 0.01913zm-0.0129-0.03359c-2e-3 -3e-3 -3e-3 -0.0052-5e-3 -0.0083-2.6e-4 -7.94e-4 -7.9e-4 -0.0013-1e-3 -0.0021-2e-3 -0.0047-3e-3 -0.0093-5e-3 -0.01394-4e-3 -0.01222 3e-3 0.0044 0.0114 0.02429zm-0.33951-0.45682c-5e-3 -0.0051-0.0106-0.01042-0.016-0.0155 3e-3 0.0024 7e-3 0.0058 0.01 0.0083 2e-3 0.0024 4e-3 0.0049 6e-3 0.0072zm-1.928-0.79685c7e-3 -0.0044 0.0131-0.0078 0.0207-0.01241 8e-3 -1.48e-4 0.0169-2.65e-4 0.0253-5.29e-4 -0.0154 4e-3 -0.0307 0.0087-0.046 0.01291zm-7.3928-0.709c-0.0756-0.04475 1.0216-0.82397 1.4826-0.98185 0.095-0.03255 0.18783-0.0603 0.28008-0.08785-0.54381 0.36038-1.0551 0.78227-1.6531 1.0397-0.0639 0.02753-0.0987 0.03636-0.10955 0.02997zm0.71107-0.05684c-0.0356-0.0034 0.50603-0.51441 0.72864-0.66818 0.0733-0.05062 0.14948-0.09614 0.22686-0.14004-0.29544 0.26542-0.58138 0.54282-0.90228 0.77618-0.0313 0.02273-0.0481 0.03253-0.0532 0.03204zm0.58808-0.59221c-4e-3 0.0021 0.0395-0.02873 0.15037-0.10801 0.077-0.0466 0.16833-0.10351 0.25994-0.15865-0.21834 0.13736-0.40242 0.26257-0.41031 0.26665zm2.8438-0.6904c-0.0293 0.0024-0.13026-0.0037-0.31523-0.02894-0.0115-0.0013-0.0231-0.0019-0.0346-0.0031 0.26128 0.0042 0.39604 0.02834 0.34985 0.03204zm-19.055-0.38286c-0.0683-0.0061-0.13642-0.01455-0.20464-0.0217 8e-3 2.65e-4 0.01 5.29e-4 0.0145 0.0011 0.0635 0.0059 0.25367 0.02668 0.19017 0.02066z" fill="#b3a1a4" stop-color="#000000" style="-inkscape-stroke:none;font-variation-settings:normal"/>
  </clipPath>
 </defs>
 <circle cx="17.622" cy="17.622" r="17.622" fill="#6200ee"/>
 <g transform="translate(-60.47 -110.42)">
  <g transform="matrix(.31654 0 0 .31654 37.28 96.633)" fill="none" stroke="#fff" stroke-width="2.5075">
   <path d="m167.91 97.485-27.505 28.712"/>
   <path d="m99.952 97.485c-0.1948-0.0014-0.38966 0.0048-0.58399 0.01839-1.932 0.13548-3.7733 1.025-5.2043 2.33s-2.4669 3.007-3.1412 4.8225c-1.3486 3.631-1.2751 7.6118-1.2153 11.485 0.06807 4.4104 0.09591 8.8214 0.08353 13.232" clip-path="url(#clipPath32670)"/>
   <path d="m99.952 97.485h67.963l-27.505-27.664m14.274 43.532-17.914 3.3268" clip-path="url(#clipPath20412)" stroke-linejoin="round"/>
   <path transform="matrix(1,0,0,-1,0,194.97)" d="m154.68 113.35-17.914 3.3268" clip-path="url(#clipPath32727)" stroke-linejoin="round"/>
  </g>
 </g>
</svg>
